<?xml version="1.0" standalone="no"?>
<!DOCTYPE svg PUBLIC "-//W3C//DTD SVG 20010904//EN"
 "http://www.w3.org/TR/2001/REC-SVG-20010904/DTD/svg10.dtd">
<svg version="1.0" xmlns="http://www.w3.org/2000/svg"
 width="224.000000pt" height="224.000000pt" viewBox="0 0 224.000000 224.000000"
 preserveAspectRatio="xMidYMid meet">
<metadata>
Created by potrace 1.11, written by Peter Selinger 2001-2013
</metadata>
<g transform="translate(0.000000,224.000000) scale(0.100000,-0.100000)"
fill="#000000" stroke="none">
<path d="M0 1120 l0 -1120 1120 0 1120 0 0 1120 0 1120 -1120 0 -1120 0 0
-1120z m1408 820 c-7 -11 -15 -15 -17 -9 -2 6 3 15 10 20 20 12 21 11 7 -11z
m42 -17 c0 -32 -5 -28 -14 10 -4 19 -3 26 4 22 5 -3 10 -18 10 -32z m-86 -28
c-10 -8 -24 -15 -31 -15 -7 0 -10 -7 -7 -15 4 -8 1 -21 -5 -28 -8 -10 -6 -23
8 -50 21 -42 12 -50 -13 -12 -9 14 -14 25 -10 25 4 0 1 6 -5 14 -8 10 -8 16 3
25 8 6 12 21 9 31 -5 18 5 25 30 21 4 0 7 4 7 9 0 6 8 10 17 10 15 0 14 -2 -3
-15z m151 -71 c-2 -41 -21 -81 -33 -69 -3 2 0 11 7 18 6 8 13 32 15 55 3 33 1
41 -15 45 -10 3 -19 10 -19 16 0 7 9 5 24 -4 21 -14 24 -23 21 -61z m-312 -91
c18 -17 19 -17 29 0 6 12 14 15 21 9 7 -5 27 -9 45 -7 17 1 32 -2 32 -7 0 -4
-13 -9 -30 -9 -67 -3 -74 -5 -78 -17 -3 -10 -7 -10 -18 -1 -8 6 -11 16 -7 22
3 6 1 7 -5 3 -7 -4 -12 -15 -12 -25 0 -15 -14 -26 -63 -49 -5 -2 -3 5 5 17 7
12 20 21 29 21 9 0 16 8 16 18 0 48 6 52 36 25z m386 3 c9 -11 7 -15 -8 -19
-14 -3 -17 0 -14 14 6 23 7 23 22 5z m-39 -6 c0 -5 -16 -10 -36 -10 -21 0 -33
4 -29 10 3 6 19 10 36 10 16 0 29 -4 29 -10z m120 -24 c0 -28 3 -33 18 -29 12
3 22 -4 30 -21 7 -17 8 -26 1 -26 -5 0 -12 6 -15 14 -3 8 -16 17 -29 20 -17 4
-22 11 -18 26 6 22 -15 28 -34 9 -8 -8 -16 -8 -30 1 -16 10 -16 11 5 7 12 -3
22 -1 22 4 0 5 7 9 16 9 8 0 12 5 9 10 -3 6 1 10 9 10 11 0 16 -10 16 -34z
m-567 -39 c-2 -4 -10 -4 -16 1 -18 14 -70 25 -63 13 4 -5 2 -12 -4 -16 -6 -4
-10 5 -10 20 0 24 3 26 30 20 22 -5 30 -3 30 7 0 7 9 2 19 -12 11 -13 17 -28
14 -33z m697 2 c12 -8 11 -9 -6 -4 -23 6 -39 -8 -47 -40 -4 -19 -5 -18 -6 2
-1 20 22 53 37 53 4 0 14 -5 22 -11z m50 -19 c0 -17 -2 -19 -14 -8 -14 13 -12
28 5 28 5 0 9 -9 9 -20z m-822 -20 c18 -16 28 -30 24 -30 -4 0 -24 -15 -44
-34 -27 -25 -43 -32 -62 -29 -22 5 -25 3 -19 -13 3 -11 10 -22 15 -25 10 -7
-25 -49 -41 -49 -8 0 -10 -8 -6 -19 3 -11 -1 -25 -10 -34 -8 -9 -15 -20 -14
-24 1 -4 -3 -21 -9 -36 -7 -16 -12 -34 -12 -42 0 -8 -5 -17 -10 -20 -9 -6 -9
33 0 55 1 3 2 9 1 14 -1 5 4 13 11 18 11 6 10 10 -1 17 -18 12 -5 31 21 31 20
0 20 1 5 18 -23 26 -21 42 6 42 29 0 57 19 40 27 -7 2 -13 11 -13 19 0 8 -4
14 -10 14 -16 0 -12 27 6 34 8 3 13 2 10 -3 -3 -5 10 -9 29 -8 27 1 35 5 35
20 0 13 5 17 15 13 8 -3 15 -1 15 4 0 6 8 11 18 11 16 1 16 2 0 6 -10 2 -18
11 -18 19 0 8 -4 12 -10 9 -5 -3 -10 1 -10 9 0 21 2 21 38 -14z m809 -45 c-23
-22 -33 -18 -12 5 10 11 20 18 23 16 2 -3 -3 -12 -11 -21z m12 -58 c6 -8 11
-19 10 -23 -5 -27 3 -41 22 -40 29 1 48 -29 30 -46 -11 -11 -12 -9 -7 8 7 23
-13 38 -38 28 -10 -4 -16 6 -21 36 -4 23 -9 39 -13 36 -7 -7 -32 13 -32 26 0
11 32 -6 49 -25z m-1233 -142 c3 -14 10 -22 15 -19 5 3 9 0 9 -5 0 -6 -7 -11
-15 -11 -8 0 -15 7 -15 16 0 11 -6 15 -20 11 -23 -6 -26 3 -8 21 18 18 27 15
34 -13z m1269 16 c-3 -5 -1 -12 4 -16 6 -3 8 -12 4 -20 -3 -8 -1 -15 5 -15 21
0 22 -33 2 -52 -16 -15 -20 -16 -20 -3 0 8 7 15 15 15 19 0 20 16 1 27 -18 10
-32 73 -16 73 6 0 9 -4 5 -9z m-1439 -37 c-4 -14 -2 -32 4 -39 8 -9 3 -17 -17
-31 -16 -10 -31 -17 -35 -16 -5 1 -8 -7 -8 -17 0 -11 -5 -23 -10 -26 -6 -4 -8
-10 -6 -14 3 -4 1 -13 -5 -21 -6 -11 -9 -8 -9 13 0 15 5 27 10 27 6 0 8 11 4
26 -6 22 -4 25 12 22 22 -4 59 26 50 41 -7 11 2 61 11 61 3 0 2 -12 -1 -26z
m42 14 c7 -7 12 -18 12 -25 0 -8 -7 -6 -20 7 -11 11 -20 22 -20 25 0 9 16 5
28 -7z m202 -21 c0 -16 -3 -19 -9 -8 -5 7 -14 10 -20 7 -15 -10 -14 2 2 18 16
18 27 11 27 -17z m-123 5 c8 -5 -1 -8 -22 -8 -21 0 -30 3 -22 8 6 4 17 8 22 8
6 0 16 -4 22 -8z m192 -47 c18 -20 31 -38 28 -42 -7 -7 -42 27 -42 41 -1 6 -7
10 -14 8 -7 -1 -10 2 -5 9 5 9 2 10 -10 6 -10 -4 -15 -3 -11 3 10 16 19 12 54
-25z m61 -99 c0 -12 -5 -7 -19 24 -11 24 -11 24 3 6 9 -11 16 -24 16 -30z
m1080 40 c0 -2 -8 -10 -17 -17 -16 -13 -17 -12 -4 4 13 16 21 21 21 13z m-34
-61 c-9 -9 -16 -13 -16 -8 0 5 5 14 12 21 6 6 14 10 16 7 2 -2 -3 -11 -12 -20z
m-1582 -13 c3 -5 -1 -9 -9 -9 -8 0 -15 4 -15 9 0 4 4 8 9 8 6 0 12 -4 15 -8z
m51 -2 c8 -13 -5 -13 -25 0 -13 8 -13 10 2 10 9 0 20 -4 23 -10z m-81 -35 c-4
-8 -14 -16 -23 -16 -14 -1 -14 -2 0 -6 9 -2 22 -15 29 -28 9 -18 23 -25 44
-26 l31 -2 -35 -6 c-31 -5 -36 -3 -46 20 -7 14 -20 29 -30 33 -17 7 -17 9 6
26 30 24 31 24 24 5z m122 -132 c-9 -10 -13 -1 -19 47 l-6 45 16 -43 c8 -24
12 -46 9 -49z m1481 35 c-3 -8 -6 -5 -6 6 -1 11 2 17 5 13 3 -3 4 -12 1 -19z
m-1011 -65 c4 -32 8 -62 9 -68 0 -5 5 -16 12 -23 7 -7 10 -19 7 -26 -3 -7 2
-16 10 -19 9 -4 13 -13 10 -21 -3 -9 8 -27 28 -45 18 -17 28 -31 21 -31 -6 0
-19 7 -27 16 -9 8 -19 13 -24 11 -4 -3 -16 1 -26 9 -17 12 -17 14 -3 20 21 7
23 34 3 34 -18 0 -28 27 -13 34 9 5 9 7 0 12 -13 6 -20 37 -26 116 -5 66 9 51
19 -19z m-40 20 c-13 -33 -51 -83 -63 -83 -7 0 -13 -7 -13 -16 0 -10 -6 -13
-19 -9 -14 4 -20 0 -24 -17 -5 -18 -9 -20 -19 -10 -17 17 -48 15 -48 -2 0 -8
-4 -17 -9 -20 -15 -9 -41 5 -41 21 0 10 -7 14 -20 10 -10 -3 -24 1 -30 8 -15
18 40 7 63 -13 16 -14 19 -14 30 2 7 9 24 18 37 19 14 1 31 7 38 14 8 7 17 11
22 8 8 -5 90 81 90 96 0 5 3 9 6 9 3 0 3 -8 0 -17z m1094 -10 c0 -10 -4 -14
-8 -8 -4 6 -11 13 -16 18 -5 4 -2 7 7 7 10 0 17 -8 17 -17z m-1504 -13 c0 -11
-6 -20 -13 -20 -15 0 -15 2 -7 24 9 22 20 20 20 -4z m64 -52 c0 -5 -5 -8 -10
-8 -7 0 -9 -14 -5 -37 6 -37 6 -37 -9 -13 -9 16 -11 30 -5 42 12 23 11 28 -6
28 -8 0 -15 7 -15 15 0 14 3 13 25 -2 13 -10 25 -21 25 -25z m1460 0 c0 -3 -7
-14 -16 -22 -8 -9 -13 -20 -9 -25 3 -5 0 -13 -6 -17 -9 -5 -6 -11 7 -22 18
-14 18 -14 1 -8 -10 3 -20 6 -23 6 -10 0 11 66 25 77 14 10 14 12 -1 18 -10 4
-18 11 -18 16 0 5 9 4 20 -3 11 -7 20 -16 20 -20z m-1422 -45 c-3 -14 -38 -29
-38 -16 0 5 31 32 38 33 2 0 2 -7 0 -17z m1410 -96 c-7 -8 -20 -12 -30 -9 -10
2 -18 -1 -18 -7 0 -6 -5 -11 -11 -11 -23 0 -1 25 27 31 45 10 46 10 32 -4z
m-978 -58 c0 -17 5 -20 21 -16 22 6 49 -12 49 -32 0 -6 7 -11 15 -11 8 0 15
-4 15 -10 0 -5 8 -10 17 -10 15 0 14 -3 -4 -15 -16 -11 -22 -25 -20 -45 2 -25
6 -30 29 -30 15 0 30 5 33 10 3 6 11 10 18 10 28 0 -27 -35 -58 -37 -33 -2
-41 5 -36 31 1 5 -3 12 -10 16 -9 6 -8 13 3 29 8 11 18 18 21 14 4 -3 7 -2 7
4 0 6 -13 16 -30 21 -21 8 -28 16 -24 26 3 9 1 16 -5 16 -6 0 -11 -5 -11 -11
0 -8 -4 -8 -12 -1 -7 5 -23 8 -35 6 -15 -3 -23 1 -23 11 0 8 5 15 10 15 6 0
10 7 10 15 0 8 5 15 10 15 6 0 10 -10 10 -21z m930 6 c0 -8 -7 -15 -15 -15 -8
0 -15 -6 -16 -12 0 -10 -2 -10 -6 -1 -4 12 16 42 30 43 4 0 7 -7 7 -15z m-20
-87 c0 -6 -7 -5 -15 2 -8 7 -15 17 -15 22 0 6 7 5 15 -2 8 -7 15 -17 15 -22z
m-57 -66 c12 -6 16 -11 8 -11 -22 -1 -51 30 -50 53 0 18 2 17 10 -5 5 -15 20
-31 32 -37z m-65 13 c-12 -26 -32 -33 -43 -15 -3 6 -1 10 5 10 6 0 18 7 26 15
22 21 25 19 12 -10z m-538 -47 c0 -21 11 -23 28 -6 6 6 15 9 18 5 9 -9 -36
-49 -50 -44 -6 2 -11 16 -10 30 0 18 -5 27 -16 27 -8 0 -21 9 -28 20 -12 19
-11 19 23 3 21 -10 35 -24 35 -35z m489 2 c8 -25 7 -32 -5 -37 -8 -3 -24 3
-35 13 -19 17 -20 17 -36 -5 -12 -17 -18 -20 -24 -10 -5 9 -11 10 -21 2 -7 -5
-24 -7 -38 -2 -14 4 -18 8 -10 9 8 1 24 4 35 6 11 3 28 5 37 5 9 0 19 7 22 15
4 11 10 12 25 4 30 -16 43 -12 36 10 -10 32 2 23 14 -10z m-354 -32 c7 -7 0
-9 -22 -6 -18 3 -33 1 -33 -4 0 -4 -4 -8 -10 -8 -5 0 -10 9 -10 19 0 16 5 18
33 14 17 -2 37 -9 42 -15z m11 -56 c-8 -16 -13 -32 -10 -35 3 -2 6 -18 7 -33
1 -16 7 -29 12 -30 21 -1 65 -28 65 -39 0 -7 6 -18 14 -24 12 -10 16 -8 21 11
9 29 44 68 61 68 8 0 11 6 8 14 -8 20 11 53 20 37 4 -6 2 -11 -4 -11 -8 0 -10
-9 -6 -25 5 -19 2 -25 -9 -25 -9 0 -18 -7 -21 -15 -4 -8 -13 -15 -21 -15 -8 0
-12 -4 -9 -9 3 -5 -2 -19 -12 -32 -21 -25 -38 -20 -52 16 -6 17 -20 26 -45 31
-32 6 -36 10 -32 31 3 15 -1 27 -8 30 -10 3 -11 12 -3 36 12 35 28 60 35 53 3
-2 -2 -17 -11 -34z m174 23 c6 -8 10 -19 8 -24 -1 -5 -11 2 -21 15 -19 26 -8
34 13 9z"/>
</g>
</svg>
